<svg xmlns="http://www.w3.org/2000/svg" xmlns:xlink="http://www.w3.org/1999/xlink" viewBox="0 0 81 81" fill="#fff" fill-rule="evenodd" stroke="#000" stroke-linecap="round" stroke-linejoin="round"><use xlink:href="#A" x=".5" y=".5"/><symbol id="A" overflow="visible"><g stroke="none"><path d="M75.585 80C78.023 80 80 78.023 80 75.584V4.415C80 1.976 78.023 0 75.585 0H4.415C1.976 0 0 1.976 0 4.415v71.169C0 78.023 1.976 80 4.415 80h71.17z" fill="#3c5a99"/><path d="M54.218 79.922V48.712h10.319l1.545-12.163H54.218v-7.766c0-3.522.963-5.921 5.937-5.921l6.344-.003V11.979c-1.097-.148-4.863-.479-9.245-.479-9.147 0-15.41 5.668-15.41 16.078v8.97H31.5v12.163h10.346v31.211h12.373z"/><path d="M.345 2.701l78.239 76.124c.871-.807 1.416-1.96 1.416-3.241V4.415C80 1.976 78.023 0 75.585 0H4.415C2.584 0 1.014 1.114.345 2.701z" fill-opacity=".14"/></g></symbol></svg>